<?xml version="1.0" standalone="no"?><!DOCTYPE svg PUBLIC "-//W3C//DTD SVG 1.1//EN" "http://www.w3.org/Graphics/SVG/1.1/DTD/svg11.dtd"><svg t="1505641354544" class="icon" style="" viewBox="0 0 1489 1024" version="1.1" xmlns="http://www.w3.org/2000/svg" p-id="4175" xmlns:xlink="http://www.w3.org/1999/xlink" width="93.0625" height="64"><defs><style type="text/css"></style></defs><path d="M1418.705455 375.621818A800.581818 800.581818 0 0 0 744.727273 0 801.047273 801.047273 0 0 0 66.56 382.138182 846.661818 846.661818 0 0 0 0 512a845.730909 845.730909 0 0 0 61.905455 122.414545A801.512727 801.512727 0 0 0 744.727273 1024a800.116364 800.116364 0 0 0 672.116363-372.363636A845.730909 845.730909 0 0 0 1489.454545 512a846.196364 846.196364 0 0 0-70.74909-136.378182z m-80.058182 225.28A707.490909 707.490909 0 0 1 744.727273 930.909091a706.094545 706.094545 0 0 1-605.090909-344.901818A754.501818 754.501818 0 0 1 101.469091 512a752.64 752.64 0 0 1 43.752727-80.523636A706.56 706.56 0 0 1 744.727273 93.090909a707.025455 707.025455 0 0 1 595.781818 332.8 749.847273 749.847273 0 0 1 46.545454 86.109091 754.036364 754.036364 0 0 1-48.407272 88.901818z" fill="#515151" p-id="4176"></path><path d="M744.727273 236.450909a279.272727 279.272727 0 1 0 279.272727 279.272727 279.272727 279.272727 0 0 0-279.272727-279.272727z m0 465.454546a186.181818 186.181818 0 1 1 186.181818-186.181819 186.181818 186.181818 0 0 1-186.181818 186.181819z" fill="#515151" p-id="4177"></path></svg>